<svg xmlns="http://www.w3.org/2000/svg" width="3840" height="2160"
     viewBox="0 0 1920 1080">
  <defs>
    <linearGradient id="g0" x1="0" y1="0" x2="0.6" y2="1">
      <stop offset="0"   stop-color="#F094BC" stop-opacity="0.40"/>
      <stop offset="0.4" stop-color="#5C1739"    stop-opacity="0.62"/>
      <stop offset="1"   stop-color="#100309"   stop-opacity="0.95"/>
    </linearGradient>
    <linearGradient id="s0" x1="0" y1="0" x2="1" y2="0">
      <stop offset="0"    stop-color="#ffffff" stop-opacity="0"/>
      <stop offset="0.25" stop-color="#ffffff" stop-opacity="0.5"/>
      <stop offset="0.55" stop-color="#F094BC" stop-opacity="0.62"/>
      <stop offset="1"    stop-color="#ffffff" stop-opacity="0"/>
    </linearGradient>
    <linearGradient id="g1" x1="0" y1="0" x2="0.8" y2="1">
      <stop offset="0"   stop-color="#F094BC" stop-opacity="0.40"/>
      <stop offset="0.4" stop-color="#5C1739"    stop-opacity="0.62"/>
      <stop offset="1"   stop-color="#100309"   stop-opacity="0.95"/>
    </linearGradient>
    <linearGradient id="s1" x1="0" y1="0" x2="1" y2="0">
      <stop offset="0"    stop-color="#ffffff" stop-opacity="0"/>
      <stop offset="0.25" stop-color="#ffffff" stop-opacity="0.42"/>
      <stop offset="0.55" stop-color="#F094BC" stop-opacity="0.52"/>
      <stop offset="1"    stop-color="#ffffff" stop-opacity="0"/>
    </linearGradient>
    <linearGradient id="g2" x1="0" y1="0" x2="1.0" y2="1">
      <stop offset="0"   stop-color="#F094BC" stop-opacity="0.40"/>
      <stop offset="0.4" stop-color="#5C1739"    stop-opacity="0.62"/>
      <stop offset="1"   stop-color="#100309"   stop-opacity="0.95"/>
    </linearGradient>
    <linearGradient id="s2" x1="0" y1="0" x2="1" y2="0">
      <stop offset="0"    stop-color="#ffffff" stop-opacity="0"/>
      <stop offset="0.25" stop-color="#ffffff" stop-opacity="0.33999999999999997"/>
      <stop offset="0.55" stop-color="#F094BC" stop-opacity="0.42"/>
      <stop offset="1"    stop-color="#ffffff" stop-opacity="0"/>
    </linearGradient>
    <radialGradient id="glow" cx="0.42" cy="0.40" r="0.75">
      <stop offset="0"   stop-color="#5C1739"  stop-opacity="0.30"/>
      <stop offset="0.6" stop-color="#100309" stop-opacity="0.12"/>
      <stop offset="1"   stop-color="#000000" stop-opacity="0"/>
    </radialGradient>
    <radialGradient id="vig" cx="0.5" cy="0.44" r="0.82">
      <stop offset="0"    stop-color="#000000" stop-opacity="0"/>
      <stop offset="0.52" stop-color="#000000" stop-opacity="0.34"/>
      <stop offset="1"    stop-color="#000000" stop-opacity="0.80"/>
    </radialGradient>
    <filter id="soft" x="-25%" y="-25%" width="150%" height="150%">
      <feGaussianBlur stdDeviation="58"/>
    </filter>
    <filter id="crisp" x="-25%" y="-25%" width="150%" height="150%">
      <feGaussianBlur stdDeviation="17"/>
    </filter>
    <filter id="bok" x="-25%" y="-25%" width="150%" height="150%">
      <feGaussianBlur stdDeviation="4"/>
    </filter>
    <filter id="grain" x="0" y="0" width="100%" height="100%">
      <feTurbulence type="fractalNoise" baseFrequency="0.85" numOctaves="1" seed="89"/>
      <feColorMatrix type="saturate" values="0"/>
    </filter>
  </defs>

  <rect width="1920" height="1080" fill="#100309"/>
  <rect width="1920" height="1080" fill="url(#glow)"/>

  <g filter="url(#soft)">
    <path d="M0,362 L137,414 L274,406 L411,338 L549,239 L686,151 L823,109 L960,128 L1097,192 L1234,267 L1371,314 L1509,309 L1646,259 L1783,190 L1920,143 L1920,443 L1783,490 L1646,559 L1509,609 L1371,614 L1234,567 L1097,492 L960,428 L823,409 L686,451 L549,539 L411,638 L274,706 L137,714 L0,662 Z" fill="url(#g0)" opacity="0.85"/>
    <path d="M0,747 L137,769 L274,711 L411,596 L549,474 L686,395 L823,390 L960,454 L1097,549 L1234,625 L1371,644 L1509,598 L1646,515 L1783,441 L1920,421 L1920,801 L1783,821 L1646,895 L1509,978 L1371,1024 L1234,1005 L1097,929 L960,834 L823,770 L686,775 L549,854 L411,976 L274,1091 L137,1149 L0,1127 Z" fill="url(#g1)" opacity="1.0"/>
    <path d="M0,777 L137,826 L274,882 L411,925 L549,943 L686,929 L823,891 L960,841 L1097,797 L1234,777 L1371,789 L1509,833 L1646,898 L1783,966 L1920,1018 L1920,1338 L1783,1286 L1646,1218 L1509,1153 L1371,1109 L1234,1097 L1097,1117 L960,1161 L823,1211 L686,1249 L549,1263 L411,1245 L274,1202 L137,1146 L0,1097 Z" fill="url(#g2)" opacity="0.75"/>
  </g>
  <g filter="url(#crisp)" opacity="0.9">
    <path d="M0,362 L137,414 L274,406 L411,338 L549,239 L686,151 L823,109 L960,128 L1097,192 L1234,267 L1371,314 L1509,309 L1646,259 L1783,190 L1920,143" fill="none" stroke="url(#s0)" stroke-width="14" stroke-linecap="round"/>
    <path d="M0,747 L137,769 L274,711 L411,596 L549,474 L686,395 L823,390 L960,454 L1097,549 L1234,625 L1371,644 L1509,598 L1646,515 L1783,441 L1920,421" fill="none" stroke="url(#s1)" stroke-width="26" stroke-linecap="round"/>
    <path d="M0,777 L137,826 L274,882 L411,925 L549,943 L686,929 L823,891 L960,841 L1097,797 L1234,777 L1371,789 L1509,833 L1646,898 L1783,966 L1920,1018" fill="none" stroke="url(#s2)" stroke-width="26" stroke-linecap="round"/>
  </g>
  <g filter="url(#bok)">
    <circle cx="1916" cy="152" r="79" fill="none" stroke="#ffffff" stroke-opacity="0.06" stroke-width="1.8"/>
    <circle cx="1720" cy="324" r="68" fill="none" stroke="#ffffff" stroke-opacity="0.06" stroke-width="2.4"/>
    <circle cx="898" cy="4" r="35" fill="none" stroke="#ffffff" stroke-opacity="0.09" stroke-width="2.3"/>
    <circle cx="1072" cy="1052" r="32" fill="none" stroke="#ffffff" stroke-opacity="0.08" stroke-width="1.3"/>
    <circle cx="1607" cy="797" r="87" fill="none" stroke="#ffffff" stroke-opacity="0.05" stroke-width="2.4"/>
    <circle cx="278" cy="243" r="32" fill="none" stroke="#ffffff" stroke-opacity="0.08" stroke-width="2.3"/>
    <circle cx="670" cy="607" r="71" fill="none" stroke="#ffffff" stroke-opacity="0.12" stroke-width="2.0"/>
  </g>

  <rect width="1920" height="1080" fill="url(#vig)"/>
  <rect width="1920" height="1080" filter="url(#grain)" opacity="0.022"/>
</svg>
